<?xml version="1.0" encoding="UTF-8"?>
<svg width="20px" height="24px" viewBox="0 0 20 24" version="1.1" xmlns="http://www.w3.org/2000/svg" xmlns:xlink="http://www.w3.org/1999/xlink">
    <!-- Generator: Sketch 48.1 (47250) - http://www.bohemiancoding.com/sketch -->
    <title>ic-logo</title>
    <desc>Created with Sketch.</desc>
    <defs></defs>
    <g id="Homepage-" stroke="none" stroke-width="1" fill="none" fill-rule="evenodd" transform="translate(-71.000000, -31.000000)">
        <g id="Header" transform="translate(-110.000000, 0.000000)" fill="#FFFFFF" fill-rule="nonzero">
            <g id="Nav">
                <g transform="translate(180.000000, 23.000000)">
                    <g id="Logo">
                        <g id="ic-logo" transform="translate(0.000000, 8.000000)">
                            <path d="M15.4944439,6.86168315 L16.3882193,7.55392864 L17.8279621,8.66895245 C18.0217378,7.69976605 18.5827263,6.86662549 19.3586681,6.32487541 L16.5870327,4.17832899 L17.4453554,3.03923189 C17.7961483,2.57346219 17.7082632,1.90734739 17.2488742,1.55149336 L15.1594181,4.32284141 C14.8500491,4.73336947 14.7420124,5.23491875 14.8164625,5.70775912 C14.8860612,6.15035349 15.1153825,6.56807048 15.4944439,6.86168315 Z" id="Shape" transform="translate(17.076254, 5.110223) scale(-1, 1) translate(-17.076254, -5.110223) "></path>
                            <path d="M18.1614497,16.5512797 C15.0700887,14.9307587 12.3172053,14.4725332 11.6228036,15.5854991 C11.0524858,16.4994446 12.0227637,18.2327433 13.9220826,20.0078511 L12.1191384,22.9401937 L10.8911769,22.9401937 C10.3263632,22.955896 9.8729449,23.4237467 9.8729449,24 L11.4675593,24 L13.5816458,24 L14.2332244,22.9401937 L15.2780453,21.2407593 L15.6864016,20.5769145 C15.5423533,20.3377869 15.4586665,20.0574178 15.4586665,19.7568054 C15.4586665,18.8860169 16.1549339,18.1799601 17.0140035,18.1799601 C17.0616772,18.1799601 17.1082321,18.1845256 17.154787,18.1886637 L18.1614497,16.5512797 Z" id="Shape" transform="translate(14.017197, 19.487331) scale(-1, 1) translate(-14.017197, -19.487331) "></path>
                            <path d="M19.973629,6.45285797 C19.8122273,5.66512147 19.1240758,5.07295379 18.2991541,5.07295379 C18.0636754,5.07295379 17.8393918,5.12138467 17.6354474,5.20850371 C17.0205321,5.47139789 16.588666,6.08801776 16.588666,6.80719856 L16.588666,15.031192 C16.588666,15.6170929 16.1201347,16.0924154 15.5418847,16.0924154 C15.1209347,16.0924154 14.7588534,15.8397624 14.592692,15.4764587 C14.5779513,15.4442027 14.5647034,15.4108826 14.5531352,15.3770193 L13.5811782,12.9346842 L15.4678077,6.48085683 C15.469114,6.47671864 15.4708879,6.47236733 15.4721942,6.46799264 C15.4951441,6.39572448 15.5152967,6.32345629 15.5349818,6.25099893 C16.2221059,3.72208965 14.9855611,1.08212917 12.6734086,0 L8.22972275,1.5664388 C7.68422095,1.75533853 7.39257861,2.35564117 7.57609142,2.90900269 L8.70142754,2.50102869 C9.14626245,2.33972627 9.63569283,2.57459741 9.79476183,3.02542165 C9.95383183,3.47624563 9.72217781,3.97266285 9.27743622,4.13387096 L8.11636795,4.55478059 C8.31910033,5.09868267 8.91638132,5.37678224 9.45591137,5.17598776 L10.6821,4.71937003 C10.7691448,5.21959483 10.4918699,5.72535299 10.0042114,5.90195568 L7.65520602,6.76860507 C6.66421714,7.19805147 5.96132492,8.17575179 5.91262488,9.32522992 C5.91085201,9.36741741 5.90796047,9.40941672 5.90796047,9.45200605 C5.90796047,9.47809045 5.91057211,9.503654 5.91131857,9.52957157 C5.90665415,9.51763005 5.90366827,9.50970768 5.90366827,9.50970768 L2.23713777,9.50970768 L2.23713777,8.07624109 C2.23713777,7.67564499 1.74854716,7.32726344 1.43889774,7.14659379 L1.1903574,7.01492213 L1.1903574,10.5278687 C1.20360545,11.5167308 1.9971808,12.3144227 2.97566832,12.3144227 L7.11129145,12.3144227 C7.47757062,12.3144227 7.83358785,12.3585969 8.17467772,12.4414836 C8.15801362,12.4373922 8.14160435,12.4312907 8.12502152,12.4264669 C8.1428876,12.4317872 8.16077676,12.437085 8.17896992,12.4414836 C8.18960509,12.4441081 8.20033458,12.4469463 8.21106404,12.4496888 C10.0542177,12.9121481 11.4540305,14.5142711 11.6404358,16.4765768 C11.6436083,16.5108195 11.6456601,16.5454163 11.6481794,16.5800375 C11.6564829,16.6937358 11.6619871,16.8080018 11.6619871,16.9237834 C11.6619871,18.0284241 11.2784479,19.0420695 10.6393706,19.8360962 C10.5925358,19.8943421 10.5443013,19.9514974 10.4947615,20.0072836 C10.3642409,20.1958985 10.2868981,20.4251893 10.2868981,20.6732097 C10.2868981,21.3151083 10.8003058,21.835553 11.4335056,21.835553 C11.661334,21.835553 11.8734895,21.7682027 12.0518713,21.6522563 L14.3733547,20.2630839 C14.6936398,20.4447001 14.9102721,20.7912598 14.9102721,21.1897034 C14.9102721,21.4530233 14.8156693,21.6942322 14.658933,21.8796326 L13.6955584,22.9401937 L12.5204036,22.9401937 L12.5198438,22.9401937 L12.4629326,22.9401937 C11.8983056,22.955896 11.4448873,23.4237467 11.4448873,24 L13.5380757,24 L13.538449,24 L14.8022349,24 C14.8022349,22.9995972 15.6020617,22.1887573 16.588666,22.1887573 L16.588666,19.0992025 C15.769995,18.9338562 15.1528422,18.2019287 15.1528422,17.3233378 C15.1528422,17.2792826 15.154893,17.235557 15.1579732,17.1920695 C15.2626514,17.2079366 15.3686358,17.2189087 15.4776984,17.2189087 C15.8846541,17.2189087 16.2638098,17.1025614 16.588666,16.9039429 C17.2152419,16.5210103 17.6354474,15.8267314 17.6354474,15.031192 L17.6354474,6.80719859 C17.6354474,6.42400717 17.9418305,6.11348621 18.3196779,6.11348621 C18.6841852,6.11348621 18.9813338,6.40272419 19.0018597,6.76730448 C18.5318335,7.09352773 18.2232109,7.64114277 18.2232109,8.26230264 C18.2232109,9.26260984 19.0229434,10.0734507 20.0096421,10.0734507 L20.0096421,6.80719859 C20.009642,6.68574269 19.9971407,6.56740824 19.973629,6.45285797 Z" id="Shape" transform="translate(10.600000, 12.000000) scale(-1, 1) translate(-10.600000, -12.000000) "></path>
                        </g>
                    </g>
                </g>
            </g>
        </g>
    </g>
</svg>